<?xml version="1.0" encoding="utf-8"?>
<!-- Generator: Adobe Illustrator 25.0.1, SVG Export Plug-In . SVG Version: 6.00 Build 0)  -->
<svg version="1.0" id="katman_1" xmlns="http://www.w3.org/2000/svg" xmlns:xlink="http://www.w3.org/1999/xlink" x="0px" y="0px"
	 viewBox="0 0 748.8 534" style="enable-background:new 0 0 748.8 534;" xml:space="preserve">
<g transform="translate(-0.48199699,-0.321747)">
	<g transform="translate(-1,-2)">
		<g transform="matrix(1,0,0,-1,0,292.472)">
			<g transform="translate(0.33333,0.666662)">
				<g transform="translate(134.6056,0.551333)">
					<path d="M192.7-96.3h-16.8V-77h16.8c7.4,0,10.8-5,10.8-9.7v-0.4C203.4-92.6,199.1-96.3,192.7-96.3z M209.5-113.7
						c-3,1.2-5.5,3.1-7.2,5.6l-3.4,4.7c7.4,2.3,12.5,8.9,12.6,16.4v0.3c0,10.1-7.9,17.4-18.8,17.4c-15.9,0-20.3,0.1-21,0.1h0h0
						c-2.1,0-3.8-1.8-3.8-4v-44.2c0-2.3,1.7-4.1,3.9-4.1c2.4,0,4.2,1.8,4.2,4.1v13.1h13.7l6.1-8.4c2.6-3.7,5.7-6.1,10.6-8.5l0.3-0.1
						c0.2-0.1,0.6-0.2,1.2-0.2c2.4,0,4.1,1.7,4.1,4C211.9-115.7,210.9-114.3,209.5-113.7L209.5-113.7z M290.9-99.2l9.1,19.3
						l9.2-19.3H290.9z M320.5-104.4l-15.8,32.6c-0.6,1.6-2,2.6-3.6,2.6h-1.8c-1.6,0-3-1-3.6-2.7l-21.2-43.8l-0.1-0.2
						c-0.1-0.4-0.3-0.9-0.3-1.4c0-2.3,1.6-4.1,3.8-4.1c1.6,0,3.1,1,3.7,2.4l5.8,12.1h25.3l0.6-1.2c1.1-2.3,1.7-4.8,1.7-6.8
						c0-0.5-0.1-1.2-0.1-1.6c0-0.3-0.1-0.7-0.1-0.8c0-2.3,1.7-3.9,4.2-3.9c4,0,4,4.2,4,5.6C323.1-112,322.1-107.7,320.5-104.4
						L320.5-104.4z M157.2-69.2h-30.5c-2.2,0-4-1.9-4-4.1v-43.5c0-2.3,1.8-4.1,4.1-4.1h31.1c2.3,0,4,1.7,4,4c0,2.2-1.7,3.8-4,3.8
						h-27.3v14.5H153c2.2,0,4.1,1.8,4.1,4c0,2.1-1.9,3.8-4.2,3.8h-22.4V-77h26.7c2.3,0,4,1.6,4,3.8C161.2-71,159.4-69.2,157.2-69.2z
						 M261.4-68.7c-1,0-2.9-0.4-3.7-2.7l-14.5-33l-14.7,33.3c-0.7,1.5-2.1,2.5-3.7,2.5c-1.8,0-3.3-1.1-3.8-2.8
						c-0.1-0.4-0.2-0.8-0.2-1.2l-4-44.4l0-0.2c0-2.3,1.6-4,3.9-4.1l0.1,0l0.2,0c2,0.2,3.6,1.8,3.7,3.9l2.5,29.4l11.9-27.1l0-0.1
						c0.7-1.5,2.3-2.4,4-2.4c1.8,0,3.3,1,3.9,2.5L259.1-88l3.1-29.6c0.3-2.2,1.8-3.7,3.9-3.8l0.1,0l0.2,0c2.1,0.2,3.7,1.9,3.7,4.1
						l-4.7,44.6c0,1.4-0.8,2.7-2,3.5l-0.2,0.1l-0.1,0l-0.1,0l-0.3,0.1C262.4-68.8,262-68.7,261.4-68.7L261.4-68.7z M365.2-68.7
						c-2.1,0-3.7-1.8-3.7-4.1v-32.6l-26.4,35.2l-0.2,0.2c-0.9,0.9-1.9,1.3-3,1.3c-1.9,0-3.4-1.2-3.9-3.2l0-0.2l0,0v0v-45.1
						c0-2.3,1.6-3.9,3.9-4.1l0.1,0l0.2,0c2.2,0.2,3.7,1.9,3.7,4.1v32.6l26.4-35.2l0.2-0.2c0.8-0.8,1.7-1.2,2.8-1.3l0.3,0l0.1,0
						l0.1,0l0.3,0.1c0.7,0.1,1.4,0.4,2,0.8l0.2,0.2l0.1,0l0,0l0.2,0.2c0.6,0.8,1,1.8,1,2.8v44.5C369.4-70.6,367.5-68.7,365.2-68.7
						L365.2-68.7z M411.6-68.7c-1.3,0-2.4-0.6-3.1-1.7L395-89.6l-13.5,18.8c-1,1.3-2.2,2.1-3.5,2.1c-2.2,0-4.1-1.8-4.1-3.9
						c0-0.9,0.4-1.8,1.1-2.8l15.9-22V-117c0-3,2-4.4,3.9-4.4c2.4,0,4,1.8,4,4.4v19.6l16,22.4c0.4,0.6,0.9,1.4,0.9,2.5
						C415.7-70.3,413.5-68.7,411.6-68.7z M91.8-68.2c-14.1,0-25.6-12-25.6-26.8v-0.5c0.2-14.8,11.4-26.4,25.6-26.4
						c14.3,0,25.5,11.3,25.5,25.7c0,2.2-1.8,3.8-4.2,3.8h-8.9c-4.7,0-9.5-1.3-13.1-3.5l-0.4-0.3c-0.1-0.1-0.4-0.3-0.6-0.6
						c-0.6-0.6-0.9-1.5-0.9-2.3c0-1.2,0.6-2.3,1.5-3.1c0.8-0.6,1.7-1,2.6-1c0.8,0,1.5,0.3,2.1,0.7c2.4,1.5,5.2,2.2,8.5,2.2h4.7
						c-1.6-6.9-7.4-13.7-16.8-13.7c-9.7,0-17.4,8.2-17.6,18.6v0.5c0,10.5,7.9,19,17.6,19c6,0,10-1,15.3-6.5c0.9-0.9,2.1-1.4,3.4-1.4
						c2.2,0,3.9,1.6,3.9,3.8c0,1.1-0.4,2.2-1.1,3C108.1-71.3,100.7-68.2,91.8-68.2z"/>
				</g>
				<g transform="translate(0.868667,81.428931)">
					<path d="M664.7-119c-3.4,0-5.9,2.6-5.9,6.1v19.4h-27.7c-4.6,0-6.2,2.8-6.2,5.5c0,2,0.9,3.7,1.9,5.4l0,0.1l28.2,51.7
						c1.3,2.4,3.2,3.7,5.5,3.7c3.1,0,5.7-2.5,5.7-5.5c0-1.4-0.6-2.5-0.9-3.1l-25.4-46.5h18.9v8.1c0,3.8,3,6.1,5.9,6.1
						c3.4,0,5.7-2.5,5.7-6.1v-8.1h7c3.1,0,5.7-2.6,5.7-5.8c0-3-2.6-5.5-5.7-5.5h-7v-19.4C670.4-116.6,668.1-119,664.7-119z
						 M130.4-46.8c5.1,0,9.2,4.2,9.2,9.3c0,5.2-4.2,9.2-9.3,9.2H75.5c-5.1,0-9.2-4.1-9.2-9.2v-71.3c0-5.2,4.3-9.2,9.3-9.2h54.9
						c5.1,0,9.2,4.1,9.2,9.2c0,5.2-4.2,9.2-9.3,9.2H84.7v17.2l38.9,0.1c5.1,0,9.2,4.1,9.2,9.2c0,5.2-4.3,9.2-9.3,9.2H84.7v17.2
						H130.4z M213-28.3c-5.1,0-9.2-4.2-9.2-9.2v-42.7c0-12.1-8.9-21-18.9-21c-10,0-18.8,8.9-18.8,21v42.7c0,5-4,9.1-9,9.2
						c-5.2,0-9.3-4.2-9.3-9.2v-42.7c0-21.1,16.3-38.7,37.4-38.8c20.8,0.1,37.1,17.8,37.1,38.8v42.7C222.2-32.6,218.2-28.3,213-28.3z
						 M284.4-72.9h-30.9v25.6h30.9c7.1,0,12.8-5.7,12.8-12.8C297.2-67.2,291.5-72.9,284.4-72.9z M370.4-25.7
						c-25.3,0-44.7-21.5-44.7-48c0-9,2.3-17.4,6.5-24.7H357l-1.9,1.7c-6,5.2-10,13.3-10,23c0,17,11.6,29.3,25.4,29.3
						c13.8,0,25.3-12.3,25.3-29.3c0-17-11.6-31.2-25.3-31.2h-42c-5.5,0-12.2,1.3-17.2,3.3c-2.1,0.9-4.1,2-5.4,2.8
						c-2.2,1.4-4,3.3-5.6,5.4l-3.6,4.7c11.2,4.7,19,15.8,19,28.7c0,17.2-13.9,31.2-31.2,31.2h-40.1c-5,0-9.2-4.1-9.2-9.2l0.1-71.4
						c0-5,4.1-9.1,9.1-9.1c5.1,0,9.1,4.1,9.1,9.1v18.2h22.3c2.9-3.9,5.6-7.4,8.6-11.6c1.1-1.5,2.2-3,3.5-4.3
						c8.2-9.4,21.4-14.5,40.6-14.5h42c25.3,0,44.8,21.5,44.8,48.1C415.2-47.2,395.7-25.7,370.4-25.7z M355.8,70.2l-24.1-4.9
						c-1.7-0.3-2.7-1.7-2.3-3.5l5.1-24.7c1.7-8.4,7.8-10.4,14.6-9l14.7,3l-1.5,7.2L348,35.4c-3.7-0.8-5.3,0-6.2,4.1l-0.7,3.7
						l17.7,3.6l-1.5,7.1l-17.7-3.6l-1.7,8.8l19.3,4L355.8,70.2z M403.7,58.8l14.1-3.7l1.8,7.1L405.1,66c-6.7,1.7-12.9,0.1-15.1-8.1
						l-6.4-24.4c-0.4-1.8,0.5-3.1,2.1-3.6l4.7-1.2l4.2,15.8l17.4-4.6l1.8,7l-17.5,4.6l1,3.7C398.4,59.1,400.1,59.7,403.7,58.8
						L403.7,58.8z M370.4,15.5c25.9,0,49.2-11.4,65.1-29.5l4.6,4c-17,19.3-41.9,31.6-69.7,31.6c-27.7,0-52.6-12.2-69.6-31.6l4.6-4
						C321.2,4.1,344.5,15.5,370.4,15.5L370.4,15.5z M370.4,79.9c42.3,0,80.6-17.4,108-45.5l4.4,4.3c-28.5,29.2-68.3,47.3-112.4,47.3
						c-44,0-83.8-18.1-112.3-47.3l4.4-4.3C289.8,62.5,328.2,79.9,370.4,79.9z M446.8-2l11.3,39.3c0.4,1.4,0.6,2.8-1.3,4.2l-1.5,1.2
						c-1.8,1.4-3.2,0.9-4.4,0.1l-34.2-22.2l7.2-4.1l24.7,16l-3.9-13.5l-3.2,2.5l-6.5-4.3l7.6-5.8l-2.2-7.6L446.8-2z M305.4,15.7
						c-2.1-1.7-4.6-2.6-7-2.4c-2.8,0.3-4.6,1.5-7.2,4.8l-13.6,16.8l-6.1-5l14.9-18.3c3.1-3.8,6.7-5.9,10.8-6.2c4.7-0.4,8.9,1,13,4.3
						c4.1,3.3,6.4,7.1,6.9,11.8c0.4,4.1-0.8,8-3.9,11.8l-14.9,18.4l-6-4.9l13.6-16.8c2.7-3.3,3.4-5.2,3.2-8.1
						C308.9,19.7,307.5,17.4,305.4,15.7L305.4,15.7z M520.8-109c-16.2,0-25.9,18.1-25.9,35.8c0,17.1,9,35.4,25.7,35.4
						c16.2,0,25.9-18.1,25.9-35.8C546.5-90.8,537.5-109,520.8-109z M520.8-26.2c-22,0-38.6-20.4-38.6-47.5c0-27.2,16.1-47,38.4-46.9
						c22,0,38.6,20.4,38.6,47.6C559.2-45.9,543.1-26.2,520.8-26.2z M480.3-106.6l-46.4-0.1c1.1,3.3,3.3,5.9,6.9,8.2
						c0,0,18.8,12.5,25.3,16.4c11.8,7.2,20.6,22.5,13.2,39.9c-4.3,10.1-14.4,16-27.6,16c-17.9,0-30.4-11.9-31-29.5
						c0-3.5,2.8-6.4,6.3-6.4c3.4,0,6.3,2.9,6.3,6.3c0.5,16.5,14.1,17.8,18.3,17.8c11.3,0,18.2-7.1,18.2-18.6
						c0-7.4-5.7-12.6-10.4-15.6l-25.3-16.4c-9.4-6.1-13.5-14.2-13.7-27.2l-0.1-2.6h60c3.3,0,5.9,2.6,5.9,5.9
						C486.2-109.2,483.6-106.6,480.3-106.6L480.3-106.6z M625.4-112.4c0-3.3-2.6-5.9-5.9-5.9h-60l0.1,2.6c0.2,13,4.4,21.1,13.7,27.2
						l25.3,16.4c4.8,3,10.4,8.2,10.4,15.6c0,11.5-7,18.6-18.2,18.6c-4.2,0-17.8-1.2-18.3-17.8c-0.1-3.4-2.9-6.3-6.3-6.3
						c-3.5,0-6.3,2.9-6.3,6.4c0.6,17.7,13.1,29.5,31,29.5c13.1,0,23.2-5.8,27.6-16c7.4-17.4-1.4-32.7-13.2-39.9
						C598.8-86,580-98.4,580-98.4c-3.6-2.3-5.8-4.9-6.9-8.2l46.4,0.1C622.8-106.6,625.4-109.2,625.4-112.4z"/>
				</g>
			</g>
		</g>
	</g>
</g>
</svg>
